HIERARCHY
ROOT Hips
{
  OFFSET 0 0 0
  CHANNELS 6 Xposition Yposition Zposition Zrotation Yrotation Xrotation
  JOINT LeftThigh
  {
    OFFSET 8.409438 0 -5.917753
    CHANNELS 3 Zrotation Yrotation Xrotation
    JOINT LeftLeg
    {
      OFFSET 0 0 -42.358652
      CHANNELS 3 Zrotation Yrotation Xrotation
      JOINT LeftFoot
      {
        OFFSET 0 0 -39.357303
        CHANNELS 3 Zrotation Yrotation Xrotation
      }
    }
  }
  JOINT RightThigh
  {
    OFFSET -8.409438 0 -5.917753
    CHANNELS 3 Zrotation Yrotation Xrotation
    JOINT RightLeg
    {
      OFFSET 0 0 -42.358652
      CHANNELS 3 Zrotation Yrotation Xrotation
      JOINT RightFoot
      {
        OFFSET 0 0 -39.357303
        CHANNELS 3 Zrotation Yrotation Xrotation
      }
    }
  }
  JOINT SpineLow
  {
    OFFSET 0 0 4.719101
    CHANNELS 3 Zrotation Yrotation Xrotation
    JOINT SpineMid
    {
      OFFSET 0 0 12.899191
      CHANNELS 3 Zrotation Yrotation Xrotation
      JOINT Chest
      {
        OFFSET 0 0 12.899191
        CHANNELS 3 Zrotation Yrotation Xrotation
        JOINT LeftShoulder
        {
          OFFSET 7.550562 1.41573 9.438202
          CHANNELS 3 Zrotation Yrotation Xrotation
          JOINT LeftArm
          {
            OFFSET 9.155056 0 4.247191
            CHANNELS 3 Zrotation Yrotation Xrotation
            JOINT LeftForearm
            {
              OFFSET 0 0 25.771955
              CHANNELS 3 Zrotation Yrotation Xrotation
              JOINT LeftHand
              {
                OFFSET 0 0 25.197169
                CHANNELS 3 Zrotation Yrotation Xrotation
              }
            }
          }
        }
        JOINT RightShoulder
        {
          OFFSET -7.550562 1.41573 9.438202
          CHANNELS 3 Zrotation Yrotation Xrotation
          JOINT RightArm
          {
            OFFSET -9.155056 0 4.247191
            CHANNELS 3 Zrotation Yrotation Xrotation
            JOINT RightForearm
            {
              OFFSET 0 0 -25.771955
              CHANNELS 3 Zrotation Yrotation Xrotation
              JOINT RightHand
              {
                OFFSET 0 0 -25.197169
                CHANNELS 3 Zrotation Yrotation Xrotation
              }
            }
          }
        }
        JOINT Neck
        {
          OFFSET 0 0 15.101124
          CHANNELS 3 Zrotation Yrotation Xrotation
          JOINT Head
          {
            OFFSET 0 0 11.325843
            CHANNELS 3 Zrotation Yrotation Xrotation
            End Site
            {
              OFFSET 0 0 14.157303
            }
          }
        }
      }
    }
  }
}
MOTION
Frames: 7
Frame Time: 0.0
0.0  89.887642  0.0  15.778488  -18.491352  -125.514769  11.64944  -36.222683  -54.280693  -30.312724  14.138109  31.432349  10.756507  -0.941737  8.388839  -11.529001  7.052876  8.116487  25.700816  7.531299  34.75331  -1.690722  2.41237  -0.97698  -0.554383  1.205221  3.06319  -1.361045  3.35828  8.351384  -1.361045  3.35828  8.351384  -11.329821  38.398649  9.435021  -116.422061  56.478377  -55.059767  -34.949883  -6.401351  67.880994  76.217518  4.521703  1.9005  6.207726  7.494451  33.148472  110.978579  22.394399  55.928679  -7.435935  17.762757  -99.318705  108.604639  1.367132  -20.730887  13.396014  2.694433  11.51338  9.998626  2.275483  8.579271  
0.0  89.887642  0.0  16.763109  -20.352799  -125.763797  5.712515  -40.371804  -48.201303  -29.932732  1.606587  26.977062  8.855783  -0.419978  7.865547  -9.335499  6.472314  8.464415  25.090498  7.898151  34.520513  -1.584722  2.669258  -1.204305  -0.130285  1.332514  3.065862  -0.186763  3.652065  8.380882  -0.186763  3.652065  8.380882  -11.515831  37.294462  9.198263  -118.365189  56.468695  -57.843135  -34.82847  -6.748724  67.738878  75.852498  4.758271  2.592497  5.937184  6.539446  32.976896  110.656936  21.969813  56.010603  -9.246735  18.337219  -99.579503  108.493826  1.640871  -20.12184  13.01773  2.345039  11.46702  9.722017  2.004999  8.553728  
0.0  89.887642  0.0  17.866657  -22.313394  -126.110274  -15.235861  -52.617411  -31.70141  -16.290205  -5.799778  24.041018  8.737719  0.215217  7.21098  -7.830481  6.316144  8.615429  24.472752  8.360878  34.416571  -1.134134  2.945974  -1.505824  0.21912  1.476146  3.104499  0.788159  3.999071  8.50874  0.788159  3.999071  8.508739  -11.259845  35.832566  8.54919  -121.402803  56.257086  -61.769172  -34.506258  -6.824304  67.980721  75.60117  5.107754  2.89473  5.911691  5.356936  32.070562  110.143531  21.310046  56.160307  -11.587844  19.438714  -99.719728  107.79025  2.149157  -20.689321  12.851444  2.150234  11.276489  9.601678  1.851575  8.415584  
0.0  89.887642  0.0  18.80164  -23.732319  -126.327309  -31.436881  -62.512472  -20.542957  -7.852246  -5.482349  23.68306  12.414617  2.016144  6.681649  -7.827519  7.065589  8.204395  24.619414  8.492092  34.405672  -0.591191  2.941909  -1.526579  0.354076  1.636005  3.133932  1.179602  4.41719  8.601902  1.179602  4.41719  8.601902  -10.149075  34.230074  7.93567  -125.145667  55.499933  -66.31955  -34.203458  -6.722287  68.450518  75.345855  5.37152  3.152523  6.121046  4.267452  30.718598  109.707034  20.729373  56.402611  -13.398595  20.356793  -99.557339  106.467284  3.10647  -23.111178  13.164642  2.109401  10.940248  9.838371  1.819463  8.163324  
0.0  89.887642  0.0  18.533953  -22.959669  -125.921804  -23.026952  -63.030918  -29.819632  -2.243394  -6.599612  21.673102  9.33742  0.856421  6.303672  -10.733249  8.962131  7.101388  26.250246  7.80931  34.425937  -0.261065  2.298504  -1.193199  0.02786  1.764928  3.142238  0.305888  4.811251  8.605066  0.305888  4.811251  8.605065  -8.758101  32.828996  7.500146  -128.436241  54.266969  -70.479192  -34.092885  -6.364  68.886059  75.255174  5.684328  3.40015  6.357796  3.771358  29.302711  109.807707  20.326189  56.536551  -14.044379  20.173119  -98.964828  105.649394  3.746966  -25.153005  13.845373  2.181612  10.622602  10.348594  1.878737  7.921394  
0.0  89.887642  0.0  17.474038  -21.343027  -125.267613  -3.480983  -59.043868  -48.355062  -2.765451  -4.168833  21.70211  6.023741  -0.057775  6.101678  -12.670816  10.363776  5.713867  27.718497  6.214458  35.164686  -0.874822  1.346025  -0.747758  -0.443441  1.832719  3.127229  -0.974425  5.057115  8.529325  -0.974425  5.057115  8.529325  -7.49157  31.764793  7.614698  -130.463848  52.910023  -73.109456  -34.106427  -5.924448  68.972633  75.405439  6.082875  3.82926  6.81683  2.930182  28.107266  109.380053  19.508219  56.862184  -13.497814  19.465734  -98.638573  105.390354  3.403736  -25.624111  14.496878  2.074118  10.353369  10.84006  1.803065  7.720138  
0.0  89.887642  0.0  16.53703  -20.526554  -125.118025  12.411835  -47.807918  -59.115522  -14.169954  -0.305356  21.752843  8.221862  -0.976357  6.985626  -10.814012  8.965422  6.101495  26.912592  6.303085  36.568674  -1.874474  0.821378  -0.759727  -0.617352  1.896991  3.181361  -1.437216  5.255817  8.663603  -1.437216  5.255817  8.663603  -7.113604  30.88921  7.860094  -131.506496  52.343016  -74.165695  -34.225029  -5.877996  68.682038  75.625106  6.490245  4.394074  6.329001  1.557453  26.908405  108.22254  18.098119  57.272616  -12.237053  19.387938  -98.94427  105.355397  2.61924  -25.521878  14.595571  1.386967  9.735159  10.927375  1.274055  7.272822  
